G04 #@! TF.FileFunction,Copper,L1,Top,Signal*
%FSLAX46Y46*%
G04 Gerber Fmt 4.6, Leading zero omitted, Abs format (unit mm)*
G04 Created by KiCad (PCBNEW 4.0.4-stable) date 03/14/17 03:23:15*
%MOMM*%
%LPD*%
G01*
G04 APERTURE LIST*
%ADD10C,0.100000*%
%ADD11R,0.750000X1.200000*%
%ADD12R,0.900000X0.800000*%
%ADD13R,1.900000X0.800000*%
%ADD14R,0.900000X1.200000*%
%ADD15R,1.200000X0.900000*%
%ADD16C,1.500000*%
%ADD17R,1.270000X0.970000*%
%ADD18R,1.700000X1.700000*%
%ADD19C,0.600000*%
%ADD20C,0.250000*%
%ADD21C,0.254000*%
G04 APERTURE END LIST*
D10*
D11*
X177546000Y-126934000D03*
X177546000Y-125034000D03*
X173990000Y-132014000D03*
X173990000Y-130114000D03*
X175768000Y-132014000D03*
X175768000Y-130114000D03*
D12*
X176784000Y-109948000D03*
X176784000Y-112048000D03*
D13*
X175030000Y-114239000D03*
X175030000Y-116139000D03*
X178030000Y-115189000D03*
D14*
X178816000Y-112225000D03*
X178816000Y-110025000D03*
D15*
X178646000Y-123190000D03*
X176446000Y-123190000D03*
D14*
X179197000Y-132037000D03*
X179197000Y-129837000D03*
X177419000Y-129837000D03*
X177419000Y-132037000D03*
D16*
X174879000Y-128397000D03*
D17*
X181229000Y-130297000D03*
X181229000Y-131577000D03*
D18*
X180340000Y-134620000D03*
X177673000Y-107315000D03*
X175260000Y-134620000D03*
D19*
X179324000Y-128905000D03*
X177546000Y-124968000D03*
X180848000Y-109220000D03*
X180213000Y-125730000D03*
X174879000Y-131445000D03*
X174846000Y-128905000D03*
X174879000Y-130175000D03*
X176784000Y-112048000D03*
X180213000Y-118745000D03*
X180213000Y-112014000D03*
X179500000Y-114681000D03*
X176276000Y-127889000D03*
X176784000Y-118872000D03*
X174752000Y-120650000D03*
X174752000Y-125730000D03*
X174846000Y-119380000D03*
X175006000Y-113284000D03*
X176403000Y-123190000D03*
D20*
X177546000Y-126934000D02*
X177546000Y-127127000D01*
X177546000Y-127127000D02*
X179324000Y-128905000D01*
X179197000Y-129837000D02*
X179197000Y-129032000D01*
X179197000Y-129032000D02*
X179324000Y-128905000D01*
X179197000Y-129837000D02*
X179197000Y-129413000D01*
X177546000Y-124968000D02*
X177546000Y-125034000D01*
X180848000Y-125730000D02*
X180213000Y-125730000D01*
X181356000Y-125222000D02*
X180848000Y-125730000D01*
X181356000Y-109728000D02*
X181356000Y-125222000D01*
X180848000Y-109220000D02*
X181356000Y-109728000D01*
X178646000Y-123190000D02*
X178689000Y-123147000D01*
X178646000Y-123190000D02*
X179578000Y-123190000D01*
X180213000Y-123825000D02*
X180213000Y-125730000D01*
X179578000Y-123190000D02*
X180213000Y-123825000D01*
X174879000Y-132588000D02*
X174879000Y-134239000D01*
X174879000Y-134239000D02*
X175260000Y-134620000D01*
X175006000Y-132588000D02*
X174879000Y-132588000D01*
X174879000Y-132588000D02*
X174564000Y-132588000D01*
X174564000Y-132588000D02*
X173990000Y-132014000D01*
X175768000Y-132014000D02*
X175768000Y-132080000D01*
X175768000Y-132080000D02*
X175260000Y-132588000D01*
X175260000Y-132588000D02*
X175006000Y-132588000D01*
X173990000Y-130114000D02*
X173990000Y-130175000D01*
X173990000Y-130175000D02*
X174879000Y-131064000D01*
X174879000Y-131064000D02*
X174879000Y-131445000D01*
X173990000Y-130114000D02*
X174056000Y-130114000D01*
X174846000Y-128905000D02*
X174879000Y-128872000D01*
X174879000Y-128872000D02*
X174879000Y-128397000D01*
X175768000Y-130114000D02*
X175768000Y-130556000D01*
X175768000Y-130556000D02*
X177249000Y-132037000D01*
X177249000Y-132037000D02*
X177419000Y-132037000D01*
X175768000Y-130114000D02*
X174940000Y-130114000D01*
X174940000Y-130114000D02*
X174879000Y-130175000D01*
X175768000Y-130114000D02*
X175768000Y-130302000D01*
X175768000Y-130114000D02*
X176004000Y-130114000D01*
X175768000Y-130114000D02*
X175768000Y-129794000D01*
X177783000Y-108949000D02*
X177783000Y-107425000D01*
X177783000Y-107425000D02*
X177673000Y-107315000D01*
X176784000Y-109948000D02*
X177783000Y-108949000D01*
X177783000Y-108949000D02*
X177800000Y-108932000D01*
X177800000Y-108932000D02*
X178816000Y-109948000D01*
X178816000Y-109948000D02*
X178816000Y-110025000D01*
X180213000Y-118745000D02*
X180213000Y-112014000D01*
X178111000Y-115189000D02*
X178619000Y-114681000D01*
X178619000Y-114681000D02*
X179500000Y-114681000D01*
X178030000Y-115189000D02*
X178111000Y-115189000D01*
X181229000Y-131577000D02*
X181229000Y-132291000D01*
X181229000Y-132291000D02*
X180340000Y-133180000D01*
X176784000Y-130810000D02*
X177292000Y-130810000D01*
X176276000Y-127889000D02*
X176276000Y-128016000D01*
X176276000Y-128016000D02*
X176530000Y-128270000D01*
X176530000Y-128270000D02*
X176530000Y-130556000D01*
X176530000Y-130556000D02*
X176784000Y-130810000D01*
X178224000Y-131064000D02*
X179197000Y-132037000D01*
X177546000Y-131064000D02*
X178224000Y-131064000D01*
X177292000Y-130810000D02*
X177546000Y-131064000D01*
X179197000Y-131572000D02*
X179197000Y-132037000D01*
X180340000Y-134620000D02*
X180340000Y-133180000D01*
X180340000Y-133180000D02*
X179197000Y-132037000D01*
X175030000Y-114239000D02*
X177480000Y-114239000D01*
X178816000Y-112903000D02*
X178816000Y-112225000D01*
X177480000Y-114239000D02*
X178816000Y-112903000D01*
X174752000Y-120650000D02*
X176403000Y-120650000D01*
X176784000Y-120269000D02*
X176784000Y-118872000D01*
X176403000Y-120650000D02*
X176784000Y-120269000D01*
X174752000Y-120650000D02*
X173863000Y-120650000D01*
X173482000Y-125095000D02*
X173482000Y-125349000D01*
X173482000Y-121031000D02*
X173863000Y-120650000D01*
X173482000Y-125095000D02*
X173482000Y-121031000D01*
X174117000Y-125730000D02*
X174625000Y-125730000D01*
X174625000Y-125730000D02*
X174752000Y-125730000D01*
X173863000Y-125730000D02*
X174117000Y-125730000D01*
X173482000Y-125349000D02*
X173863000Y-125730000D01*
X181229000Y-130297000D02*
X180726000Y-130297000D01*
X180726000Y-130297000D02*
X180213000Y-130810000D01*
X180213000Y-130810000D02*
X179705000Y-130810000D01*
X177648396Y-129851998D02*
X178606398Y-130810000D01*
X178606398Y-130810000D02*
X179705000Y-130810000D01*
X177419000Y-129851998D02*
X177648396Y-129851998D01*
X174117000Y-113284000D02*
X175006000Y-113284000D01*
X173482000Y-113919000D02*
X174117000Y-113284000D01*
X173482000Y-118999000D02*
X173482000Y-113919000D01*
X173863000Y-119380000D02*
X173482000Y-118999000D01*
X174846000Y-119380000D02*
X173863000Y-119380000D01*
X177500000Y-117800000D02*
X177500000Y-122136000D01*
X177500000Y-122136000D02*
X176446000Y-123190000D01*
X175839000Y-116139000D02*
X177500000Y-117800000D01*
X175030000Y-116139000D02*
X175839000Y-116139000D01*
X175030000Y-116139000D02*
X175439000Y-116139000D01*
X175387000Y-116078000D02*
X175326000Y-116139000D01*
X175326000Y-116139000D02*
X175030000Y-116139000D01*
X176403000Y-123190000D02*
X176446000Y-123190000D01*
D21*
G36*
X174085883Y-131973943D02*
X174137000Y-132025149D01*
X174137000Y-132141000D01*
X174117000Y-132141000D01*
X174117000Y-133090250D01*
X174197465Y-133170715D01*
X174050301Y-133231673D01*
X173871673Y-133410302D01*
X173775000Y-133643691D01*
X173775000Y-134334250D01*
X173933750Y-134493000D01*
X175133000Y-134493000D01*
X175133000Y-134473000D01*
X175387000Y-134473000D01*
X175387000Y-134493000D01*
X176586250Y-134493000D01*
X176745000Y-134334250D01*
X176745000Y-133643691D01*
X176648327Y-133410302D01*
X176469699Y-133231673D01*
X176390420Y-133198835D01*
X176502699Y-133152327D01*
X176541550Y-133113476D01*
X176717110Y-133233431D01*
X176969000Y-133284440D01*
X177869000Y-133284440D01*
X178104317Y-133240162D01*
X178310647Y-133107393D01*
X178495110Y-133233431D01*
X178747000Y-133284440D01*
X179071924Y-133284440D01*
X179038559Y-133305910D01*
X178893569Y-133518110D01*
X178842560Y-133770000D01*
X178842560Y-135470000D01*
X178883580Y-135688000D01*
X176707020Y-135688000D01*
X176745000Y-135596309D01*
X176745000Y-134905750D01*
X176586250Y-134747000D01*
X175387000Y-134747000D01*
X175387000Y-134767000D01*
X175133000Y-134767000D01*
X175133000Y-134747000D01*
X173933750Y-134747000D01*
X173775000Y-134905750D01*
X173775000Y-135596309D01*
X173812980Y-135688000D01*
X173430000Y-135688000D01*
X173430000Y-133224690D01*
X173488690Y-133249000D01*
X173704250Y-133249000D01*
X173863000Y-133090250D01*
X173863000Y-132141000D01*
X173843000Y-132141000D01*
X173843000Y-131887000D01*
X173863000Y-131887000D01*
X173863000Y-131867000D01*
X174041695Y-131867000D01*
X174085883Y-131973943D01*
X174085883Y-131973943D01*
G37*
X174085883Y-131973943D02*
X174137000Y-132025149D01*
X174137000Y-132141000D01*
X174117000Y-132141000D01*
X174117000Y-133090250D01*
X174197465Y-133170715D01*
X174050301Y-133231673D01*
X173871673Y-133410302D01*
X173775000Y-133643691D01*
X173775000Y-134334250D01*
X173933750Y-134493000D01*
X175133000Y-134493000D01*
X175133000Y-134473000D01*
X175387000Y-134473000D01*
X175387000Y-134493000D01*
X176586250Y-134493000D01*
X176745000Y-134334250D01*
X176745000Y-133643691D01*
X176648327Y-133410302D01*
X176469699Y-133231673D01*
X176390420Y-133198835D01*
X176502699Y-133152327D01*
X176541550Y-133113476D01*
X176717110Y-133233431D01*
X176969000Y-133284440D01*
X177869000Y-133284440D01*
X178104317Y-133240162D01*
X178310647Y-133107393D01*
X178495110Y-133233431D01*
X178747000Y-133284440D01*
X179071924Y-133284440D01*
X179038559Y-133305910D01*
X178893569Y-133518110D01*
X178842560Y-133770000D01*
X178842560Y-135470000D01*
X178883580Y-135688000D01*
X176707020Y-135688000D01*
X176745000Y-135596309D01*
X176745000Y-134905750D01*
X176586250Y-134747000D01*
X175387000Y-134747000D01*
X175387000Y-134767000D01*
X175133000Y-134767000D01*
X175133000Y-134747000D01*
X173933750Y-134747000D01*
X173775000Y-134905750D01*
X173775000Y-135596309D01*
X173812980Y-135688000D01*
X173430000Y-135688000D01*
X173430000Y-133224690D01*
X173488690Y-133249000D01*
X173704250Y-133249000D01*
X173863000Y-133090250D01*
X173863000Y-132141000D01*
X173843000Y-132141000D01*
X173843000Y-131887000D01*
X173863000Y-131887000D01*
X173863000Y-131867000D01*
X174041695Y-131867000D01*
X174085883Y-131973943D01*
G36*
X175895000Y-131887000D02*
X175915000Y-131887000D01*
X175915000Y-132141000D01*
X175895000Y-132141000D01*
X175895000Y-132161000D01*
X175641000Y-132161000D01*
X175641000Y-132141000D01*
X175621000Y-132141000D01*
X175621000Y-132025432D01*
X175671192Y-131975327D01*
X175716173Y-131867000D01*
X175895000Y-131867000D01*
X175895000Y-131887000D01*
X175895000Y-131887000D01*
G37*
X175895000Y-131887000D02*
X175915000Y-131887000D01*
X175915000Y-132141000D01*
X175895000Y-132141000D01*
X175895000Y-132161000D01*
X175641000Y-132161000D01*
X175641000Y-132141000D01*
X175621000Y-132141000D01*
X175621000Y-132025432D01*
X175671192Y-131975327D01*
X175716173Y-131867000D01*
X175895000Y-131867000D01*
X175895000Y-131887000D01*
G36*
X181662000Y-129164560D02*
X180594000Y-129164560D01*
X180358683Y-129208838D01*
X180294440Y-129250177D01*
X180294440Y-129237000D01*
X180258876Y-129047995D01*
X180259162Y-128719833D01*
X180117117Y-128376057D01*
X179854327Y-128112808D01*
X179510799Y-127970162D01*
X179463923Y-127970121D01*
X178568440Y-127074638D01*
X178568440Y-126334000D01*
X178524162Y-126098683D01*
X178450380Y-125984022D01*
X178517431Y-125885890D01*
X178568440Y-125634000D01*
X178568440Y-124434000D01*
X178524162Y-124198683D01*
X178489865Y-124145385D01*
X178519000Y-124116250D01*
X178519000Y-123317000D01*
X178773000Y-123317000D01*
X178773000Y-124116250D01*
X178931750Y-124275000D01*
X179372309Y-124275000D01*
X179605698Y-124178327D01*
X179784327Y-123999699D01*
X179881000Y-123766310D01*
X179881000Y-123475750D01*
X179722250Y-123317000D01*
X178773000Y-123317000D01*
X178519000Y-123317000D01*
X178499000Y-123317000D01*
X178499000Y-123063000D01*
X178519000Y-123063000D01*
X178519000Y-122263750D01*
X178773000Y-122263750D01*
X178773000Y-123063000D01*
X179722250Y-123063000D01*
X179881000Y-122904250D01*
X179881000Y-122613690D01*
X179784327Y-122380301D01*
X179605698Y-122201673D01*
X179372309Y-122105000D01*
X178931750Y-122105000D01*
X178773000Y-122263750D01*
X178519000Y-122263750D01*
X178360250Y-122105000D01*
X178260000Y-122105000D01*
X178260000Y-117800000D01*
X178202148Y-117509161D01*
X178037401Y-117262599D01*
X176993783Y-116218981D01*
X177080000Y-116236440D01*
X178980000Y-116236440D01*
X179215317Y-116192162D01*
X179431441Y-116053090D01*
X179453000Y-116021537D01*
X179453000Y-118182537D01*
X179420808Y-118214673D01*
X179278162Y-118558201D01*
X179277838Y-118930167D01*
X179419883Y-119273943D01*
X179682673Y-119537192D01*
X180026201Y-119679838D01*
X180398167Y-119680162D01*
X180741943Y-119538117D01*
X181005192Y-119275327D01*
X181147838Y-118931799D01*
X181148162Y-118559833D01*
X181006117Y-118216057D01*
X180973000Y-118182882D01*
X180973000Y-112576463D01*
X181005192Y-112544327D01*
X181147838Y-112200799D01*
X181148162Y-111828833D01*
X181006117Y-111485057D01*
X180743327Y-111221808D01*
X180399799Y-111079162D01*
X180027833Y-111078838D01*
X179744478Y-111195918D01*
X179730090Y-111173559D01*
X179660289Y-111125866D01*
X179717441Y-111089090D01*
X179862431Y-110876890D01*
X179913440Y-110625000D01*
X179913440Y-109425000D01*
X179869162Y-109189683D01*
X179730090Y-108973559D01*
X179517890Y-108828569D01*
X179266000Y-108777560D01*
X178720362Y-108777560D01*
X178718463Y-108775661D01*
X178758317Y-108768162D01*
X178974441Y-108629090D01*
X179119431Y-108416890D01*
X179170440Y-108165000D01*
X179170440Y-106628000D01*
X181662000Y-106628000D01*
X181662000Y-129164560D01*
X181662000Y-129164560D01*
G37*
X181662000Y-129164560D02*
X180594000Y-129164560D01*
X180358683Y-129208838D01*
X180294440Y-129250177D01*
X180294440Y-129237000D01*
X180258876Y-129047995D01*
X180259162Y-128719833D01*
X180117117Y-128376057D01*
X179854327Y-128112808D01*
X179510799Y-127970162D01*
X179463923Y-127970121D01*
X178568440Y-127074638D01*
X178568440Y-126334000D01*
X178524162Y-126098683D01*
X178450380Y-125984022D01*
X178517431Y-125885890D01*
X178568440Y-125634000D01*
X178568440Y-124434000D01*
X178524162Y-124198683D01*
X178489865Y-124145385D01*
X178519000Y-124116250D01*
X178519000Y-123317000D01*
X178773000Y-123317000D01*
X178773000Y-124116250D01*
X178931750Y-124275000D01*
X179372309Y-124275000D01*
X179605698Y-124178327D01*
X179784327Y-123999699D01*
X179881000Y-123766310D01*
X179881000Y-123475750D01*
X179722250Y-123317000D01*
X178773000Y-123317000D01*
X178519000Y-123317000D01*
X178499000Y-123317000D01*
X178499000Y-123063000D01*
X178519000Y-123063000D01*
X178519000Y-122263750D01*
X178773000Y-122263750D01*
X178773000Y-123063000D01*
X179722250Y-123063000D01*
X179881000Y-122904250D01*
X179881000Y-122613690D01*
X179784327Y-122380301D01*
X179605698Y-122201673D01*
X179372309Y-122105000D01*
X178931750Y-122105000D01*
X178773000Y-122263750D01*
X178519000Y-122263750D01*
X178360250Y-122105000D01*
X178260000Y-122105000D01*
X178260000Y-117800000D01*
X178202148Y-117509161D01*
X178037401Y-117262599D01*
X176993783Y-116218981D01*
X177080000Y-116236440D01*
X178980000Y-116236440D01*
X179215317Y-116192162D01*
X179431441Y-116053090D01*
X179453000Y-116021537D01*
X179453000Y-118182537D01*
X179420808Y-118214673D01*
X179278162Y-118558201D01*
X179277838Y-118930167D01*
X179419883Y-119273943D01*
X179682673Y-119537192D01*
X180026201Y-119679838D01*
X180398167Y-119680162D01*
X180741943Y-119538117D01*
X181005192Y-119275327D01*
X181147838Y-118931799D01*
X181148162Y-118559833D01*
X181006117Y-118216057D01*
X180973000Y-118182882D01*
X180973000Y-112576463D01*
X181005192Y-112544327D01*
X181147838Y-112200799D01*
X181148162Y-111828833D01*
X181006117Y-111485057D01*
X180743327Y-111221808D01*
X180399799Y-111079162D01*
X180027833Y-111078838D01*
X179744478Y-111195918D01*
X179730090Y-111173559D01*
X179660289Y-111125866D01*
X179717441Y-111089090D01*
X179862431Y-110876890D01*
X179913440Y-110625000D01*
X179913440Y-109425000D01*
X179869162Y-109189683D01*
X179730090Y-108973559D01*
X179517890Y-108828569D01*
X179266000Y-108777560D01*
X178720362Y-108777560D01*
X178718463Y-108775661D01*
X178758317Y-108768162D01*
X178974441Y-108629090D01*
X179119431Y-108416890D01*
X179170440Y-108165000D01*
X179170440Y-106628000D01*
X181662000Y-106628000D01*
X181662000Y-129164560D01*
M02*
