G04 #@! TF.FileFunction,Legend,Bot*
%FSLAX46Y46*%
G04 Gerber Fmt 4.6, Leading zero omitted, Abs format (unit mm)*
G04 Created by KiCad (PCBNEW 4.0.4-stable) date 03/14/17 03:23:15*
%MOMM*%
%LPD*%
G01*
G04 APERTURE LIST*
%ADD10C,0.100000*%
%ADD11C,0.120000*%
%ADD12C,0.150000*%
G04 APERTURE END LIST*
D10*
D11*
X176814000Y-115528000D02*
X176814000Y-116628000D01*
X176814000Y-116628000D02*
X174714000Y-116628000D01*
X176814000Y-115528000D02*
X174714000Y-115528000D01*
X178405000Y-113961000D02*
X178405000Y-112861000D01*
X178405000Y-112861000D02*
X180505000Y-112861000D01*
X178405000Y-113961000D02*
X180505000Y-113961000D01*
X174214000Y-111040000D02*
X174214000Y-109940000D01*
X174214000Y-109940000D02*
X176314000Y-109940000D01*
X174214000Y-111040000D02*
X176314000Y-111040000D01*
D12*
X179570000Y-115403000D02*
X178570000Y-115403000D01*
X178570000Y-116753000D02*
X179570000Y-116753000D01*
X175649000Y-114086000D02*
X176649000Y-114086000D01*
X176649000Y-112736000D02*
X175649000Y-112736000D01*
X179570000Y-109815000D02*
X178570000Y-109815000D01*
X178570000Y-111165000D02*
X179570000Y-111165000D01*
X179621000Y-117470000D02*
X179621000Y-117495000D01*
X175471000Y-117470000D02*
X175471000Y-117585000D01*
X175471000Y-126370000D02*
X175471000Y-126255000D01*
X179621000Y-126370000D02*
X179621000Y-126255000D01*
X179621000Y-117470000D02*
X175471000Y-117470000D01*
X179621000Y-126370000D02*
X175471000Y-126370000D01*
X179621000Y-117495000D02*
X180996000Y-117495000D01*
X179621000Y-126965000D02*
X179621000Y-127015000D01*
X175471000Y-126965000D02*
X175471000Y-127110000D01*
X175471000Y-132115000D02*
X175471000Y-131970000D01*
X179621000Y-132115000D02*
X179621000Y-131970000D01*
X179621000Y-126965000D02*
X175471000Y-126965000D01*
X179621000Y-132115000D02*
X175471000Y-132115000D01*
X179621000Y-127015000D02*
X181021000Y-127015000D01*
M02*
