M48
;DRILL file {KiCad 4.0.4-stable} date 03/14/17 03:23:47
;FORMAT={-:-/ absolute / metric / decimal}
FMAT,2
METRIC,TZ
T1C0.400
T2C1.000
%
G90
G05
M71
T1
X174.752Y-120.65
X174.752Y-125.73
X174.846Y-119.38
X174.846Y-128.905
X174.879Y-130.175
X174.879Y-131.445
X175.006Y-113.284
X176.276Y-127.889
X176.403Y-123.19
X176.784Y-112.048
X176.784Y-118.872
X177.546Y-124.968
X179.324Y-128.905
X179.5Y-114.681
X180.213Y-112.014
X180.213Y-118.745
X180.213Y-125.73
X180.848Y-109.22
T2
X175.26Y-134.62
X177.673Y-107.315
X180.34Y-134.62
T0
M30
